<svg xmlns="http://www.w3.org/2000/svg" viewBox="0 0 64 64"><defs><linearGradient id="linear-gradient" y1="114.77" x2="198.78" y2="114.77" gradientUnits="userSpaceOnUse"><stop offset="0" stop-color="#00b0d5"/><stop offset="0.2" stop-color="#00a9d5"/><stop offset="0.48" stop-color="#0097d5"/><stop offset="0.81" stop-color="#0079d5"/><stop offset="1" stop-color="#0064d5"/></linearGradient></defs><rect width="64" height="64" rx="14" fill="#0E0F1C"/><g transform="translate(32 32) scale(0.1711572094528571) translate(-99.39 -114.765)"><polygon points="99.39 0 0 57.38 0 172.15 21.21 184.4 21.21 170.58 11.97 165.24 11.97 64.29 99.39 13.82 186.82 64.29 186.82 165.24 99.39 215.72 44.73 184.16 44.73 172.19 44.73 160.15 44.73 157.72 44.73 145.68 44.73 83.21 99.39 51.65 154.05 83.21 154.05 146.33 99.39 177.88 56.29 153 56.29 166.82 99.39 191.7 166.02 153.24 166.02 76.3 99.39 37.83 32.76 76.3 32.76 154.65 32.76 177.25 32.76 191.07 99.39 229.53 198.78 172.15 198.78 57.38 99.39 0" fill="url(#linear-gradient)"/></g></svg>