<svg id="Layer_1" data-name="Layer 1" xmlns="http://www.w3.org/2000/svg" xmlns:xlink="http://www.w3.org/1999/xlink" viewBox="0 0 932.29 229.54"><defs><style>.cls-1{fill:url(#linear-gradient);}.cls-2{fill:#fff;}</style><linearGradient id="linear-gradient" y1="114.77" x2="198.78" y2="114.77" gradientUnits="userSpaceOnUse"><stop offset="0" stop-color="#00b0d5"/><stop offset="0.2" stop-color="#00a9d5"/><stop offset="0.48" stop-color="#0097d5"/><stop offset="0.81" stop-color="#0079d5"/><stop offset="1" stop-color="#0064d5"/></linearGradient></defs><polygon class="cls-1" points="99.39 0 0 57.38 0 172.15 21.21 184.4 21.21 170.58 11.97 165.24 11.97 64.29 99.39 13.82 186.82 64.29 186.82 165.24 99.39 215.72 44.73 184.16 44.73 172.19 44.73 160.15 44.73 157.72 44.73 145.68 44.73 83.21 99.39 51.65 154.05 83.21 154.05 146.33 99.39 177.88 56.29 153 56.29 166.82 99.39 191.7 166.02 153.24 166.02 76.3 99.39 37.83 32.76 76.3 32.76 154.65 32.76 177.25 32.76 191.07 99.39 229.53 198.78 172.15 198.78 57.38 99.39 0"/><path class="cls-2" d="M298.15,85.46a3,3,0,0,1,1.17,1.21,2,2,0,0,1-.14,1.77l-7.87,11.17a1.85,1.85,0,0,1-1.09.91,2,2,0,0,1-1.42-.39A17.74,17.74,0,0,0,278,96.54a16.83,16.83,0,0,0-12.57,5.4,18.35,18.35,0,0,0-3.63,5.87,20.19,20.19,0,0,0,0,14.31,18.12,18.12,0,0,0,3.63,5.82,17.2,17.2,0,0,0,5.54,3.94,17,17,0,0,0,7,1.44,18.06,18.06,0,0,0,10.94-3.63,2.16,2.16,0,0,1,1.39-.42,1.86,1.86,0,0,1,1.12.84l8,11.45a1.83,1.83,0,0,1,.14,1.72,3,3,0,0,1-1.16,1.17,37.48,37.48,0,0,1-9.43,4.54,35.66,35.66,0,0,1-28.61-3.24A36,36,0,0,1,247.55,133a35.06,35.06,0,0,1-3.59-8.48,35.81,35.81,0,0,1,9.15-34.7,35.23,35.23,0,0,1,7.19-5.57,36.59,36.59,0,0,1,8.5-3.58,36.08,36.08,0,0,1,20,.28A36.47,36.47,0,0,1,298.15,85.46Z"/><path class="cls-2" d="M311.19,82.48a2.32,2.32,0,0,1,.58-1.42,1.77,1.77,0,0,1,1.42-.63H327a2.38,2.38,0,0,1,1.44.59,1.78,1.78,0,0,1,.74,1.47V104.6h23.14V82.49a2,2,0,0,1,.58-1.45,2,2,0,0,1,1.51-.61H368a2.83,2.83,0,0,1,1.62.47,1.65,1.65,0,0,1,.7,1.49v65.13a1.91,1.91,0,0,1-.61,1.54,2.33,2.33,0,0,1-1.57.51H354.43a2.21,2.21,0,0,1-1.51-.51,2,2,0,0,1-.58-1.54V121.08H329.2v26.44a1.89,1.89,0,0,1-.62,1.51,2.53,2.53,0,0,1-1.7.54H313.19c-1.3,0-2-.61-2-1.82Z"/><path class="cls-2" d="M385.67,82.58a2.21,2.21,0,0,1,.52-1.56,1.92,1.92,0,0,1,1.53-.59H417.8a22.51,22.51,0,0,1,9,1.8,23.25,23.25,0,0,1,7.31,4.86A22.69,22.69,0,0,1,439,94.28a21.72,21.72,0,0,1,1.8,8.78,20.64,20.64,0,0,1-.87,6,22.41,22.41,0,0,1-2.39,5.35,23.08,23.08,0,0,1-3.66,4.52,24,24,0,0,1-4.63,3.47l12,22.53c.22.43.5.95.84,1.53a3.23,3.23,0,0,1,.51,1.54,1.38,1.38,0,0,1-.48,1.14,2,2,0,0,1-1.33.4h-16a2.33,2.33,0,0,1-1.42-.47,2.08,2.08,0,0,1-.81-1.26l-11.32-21.27h-7.54v21c0,1.33-.71,2-2.14,2H387.72a2.23,2.23,0,0,1-1.49-.49,1.92,1.92,0,0,1-.56-1.51Zm36.46,20.67a7.88,7.88,0,0,0-.52-2.8,9.11,9.11,0,0,0-1.44-2.56,8.36,8.36,0,0,0-2.23-2,7.69,7.69,0,0,0-2.89-1l-2.44-.16c-.76,0-1.59-.07-2.49-.07h-6.43v17.08h8.57c.56,0,1.05,0,1.49,0s.91-.08,1.44-.14a7.14,7.14,0,0,0,2.93-1,7.59,7.59,0,0,0,2.19-1.9,8.48,8.48,0,0,0,1.35-2.56A9.33,9.33,0,0,0,422.13,103.25Z"/><path class="cls-2" d="M451.27,82.48a2.15,2.15,0,0,1,.51-1.44,1.91,1.91,0,0,1,1.54-.61H467a2.61,2.61,0,0,1,1.49.56,1.74,1.74,0,0,1,.8,1.49v65c0,1.36-.77,2-2.29,2H453.32a1.81,1.81,0,0,1-2.05-2Z"/><path class="cls-2" d="M493,127.22c.53.44,1.2,1,2,1.75a26.83,26.83,0,0,0,2.81,2.16,23.69,23.69,0,0,0,4.7,2.47,13.7,13.7,0,0,0,4.89.88,12.61,12.61,0,0,0,4-.53,6.76,6.76,0,0,0,2.54-1.42,5.09,5.09,0,0,0,1.33-2.05,7.64,7.64,0,0,0,.39-2.46,3.62,3.62,0,0,0-1.09-2.58,11.3,11.3,0,0,0-2.68-2,22.9,22.9,0,0,0-3.3-1.51c-1.15-.42-2.14-.77-3-1.05a68,68,0,0,1-9.78-4.2,30.19,30.19,0,0,1-7-5,18.73,18.73,0,0,1-4.19-6.09,19,19,0,0,1-1.4-7.42A17.39,17.39,0,0,1,485,90.25a17.13,17.13,0,0,1,5-6,23.66,23.66,0,0,1,7.8-3.88A35.13,35.13,0,0,1,508,78.94a33.83,33.83,0,0,1,8.13,1,30.48,30.48,0,0,1,7.65,3c1.06.62,2.06,1.26,3,1.93s1.77,1.31,2.49,1.93a11.94,11.94,0,0,1,1.7,1.77,2.55,2.55,0,0,1,.62,1.44,2.16,2.16,0,0,1-.3,1.12,7,7,0,0,1-.91,1.17l-7.12,7.58a2.26,2.26,0,0,1-1.58.79,2,2,0,0,1-1.19-.37c-.36-.25-.75-.56-1.19-.93l-.41-.37c-.63-.53-1.32-1.07-2.08-1.63a18.15,18.15,0,0,0-2.44-1.51,16.17,16.17,0,0,0-2.75-1.12,9.77,9.77,0,0,0-2.93-.44,15.63,15.63,0,0,0-2.89.25,8.07,8.07,0,0,0-2.37.82,4.52,4.52,0,0,0-1.63,1.46,4,4,0,0,0-.61,2.22,3.85,3.85,0,0,0,.66,2.25,6.29,6.29,0,0,0,1.95,1.77,17.57,17.57,0,0,0,3.24,1.54q1.92.72,4.49,1.56,4.93,1.63,9.1,3.42a30.59,30.59,0,0,1,7.19,4.24,17.41,17.41,0,0,1,4.73,5.84,18.31,18.31,0,0,1,1.7,8.24,20.37,20.37,0,0,1-2.1,9.29,21.24,21.24,0,0,1-5.75,7.1,27.07,27.07,0,0,1-8.59,4.54,34.08,34.08,0,0,1-10.61,1.6,30.18,30.18,0,0,1-10.52-1.91A40.42,40.42,0,0,1,487,143.4a24.59,24.59,0,0,1-3.14-2.66c-.85-.87-1.53-1.57-2-2.1l-.14-.14a.31.31,0,0,0-.09-.12.28.28,0,0,1-.09-.07c0-.06-.06-.1-.09-.11l-.1-.07a3.31,3.31,0,0,1-1.07-1.87,2.68,2.68,0,0,1,1.07-1.78l8.06-7.68a3.08,3.08,0,0,1,1.58-.7,1.77,1.77,0,0,1,.88.28A9,9,0,0,1,493,127.22Z"/><path class="cls-2" d="M608.1,78.94a35.54,35.54,0,0,1,9.48,1.27,35,35,0,0,1,8.52,3.6,37.38,37.38,0,0,1,7.24,5.6,34.61,34.61,0,0,1,5.59,7.26,36.91,36.91,0,0,1,3.61,8.59,35.16,35.16,0,0,1,1.29,9.55,35.56,35.56,0,0,1-1.27,9.49,35,35,0,0,1-3.6,8.52,36.59,36.59,0,0,1-5.6,7.21,35,35,0,0,1-7.24,5.57,36.4,36.4,0,0,1-27.65,3.59,35.39,35.39,0,0,1-8.52-3.61,35.64,35.64,0,0,1-16.37-21.33,35.73,35.73,0,0,1,3.61-27.56,36.77,36.77,0,0,1,5.59-7.26A35,35,0,0,1,590,83.84a36.43,36.43,0,0,1,8.55-3.61A34.86,34.86,0,0,1,608.1,78.94Zm-26.79,35.64a26,26,0,0,0,1,7.1A27.57,27.57,0,0,0,585,128a26.46,26.46,0,0,0,4.17,5.41,26,26,0,0,0,5.41,4.17,27,27,0,0,0,6.37,2.69,26.59,26.59,0,0,0,14.16,0,26.59,26.59,0,0,0,11.76-6.86A26.07,26.07,0,0,0,631,128a27.17,27.17,0,0,0,2.7-6.36,26.62,26.62,0,0,0-1.15-17.47A26.88,26.88,0,0,0,618.37,90a26.66,26.66,0,0,0-17.46-1.14,27,27,0,0,0-6.37,2.69,26,26,0,0,0-5.41,4.17,26.83,26.83,0,0,0-4.17,5.38,27.1,27.1,0,0,0-2.69,6.37A26.05,26.05,0,0,0,581.31,114.58Z"/><path class="cls-2" d="M708.45,149.42a2.16,2.16,0,0,1-1.78-1L665.79,93.6v53.76c0,1.38-.72,2.06-2.16,2.06H658.9a1.82,1.82,0,0,1-2.06-2.06V82a2.17,2.17,0,0,1,.57-1.54,1.91,1.91,0,0,1,1.49-.61h6.28a2.32,2.32,0,0,1,2,1l39.85,53V81.61a1.87,1.87,0,0,1,2.06-1.73h4.73a2.56,2.56,0,0,1,1.57.56,1.82,1.82,0,0,1,.72,1.5v65.42c0,1.38-.76,2.06-2.29,2.06Z"/><path class="cls-2" d="M772.93,140.34a2,2,0,0,1,1.45.58,2.13,2.13,0,0,1,.61,1.62v4.82a2,2,0,0,1-.56,1.45,1.92,1.92,0,0,1-1.5.61h-39.8a1.82,1.82,0,0,1-2.06-2.06V81.94a2,2,0,0,1,2.15-2.06H738a2.12,2.12,0,0,1,1.48.52,1.93,1.93,0,0,1,.58,1.54v58.4Z"/><path class="cls-2" d="M784.73,81.94a2.12,2.12,0,0,1,.54-1.45,1.92,1.92,0,0,1,1.52-.61h4.87a2.27,2.27,0,0,1,1.5.56,1.89,1.89,0,0,1,.66,1.5v65.42c0,1.38-.72,2.06-2.16,2.06h-4.87a1.82,1.82,0,0,1-2.06-2.06Z"/><path class="cls-2" d="M860.55,149.42a2.16,2.16,0,0,1-1.78-1L817.89,93.6v53.76c0,1.38-.72,2.06-2.16,2.06H811a1.82,1.82,0,0,1-2.06-2.06V82a2.21,2.21,0,0,1,.56-1.54,2,2,0,0,1,1.5-.61h6.28a2.31,2.31,0,0,1,2,1l39.86,53V81.61a1.86,1.86,0,0,1,2.06-1.73h4.73a2.51,2.51,0,0,1,1.56.56,1.8,1.8,0,0,1,.73,1.5v65.42c0,1.38-.76,2.06-2.29,2.06Z"/><path class="cls-2" d="M930,79.88c1.44,0,2.15.75,2.15,2.25v4.63a2.41,2.41,0,0,1-.53,1.55A2.08,2.08,0,0,1,930,89H892.2v19.24h29.69a2.27,2.27,0,0,1,1.45.49,2,2,0,0,1,.61,1.67v4.77a2.39,2.39,0,0,1-.51,1.5,1.85,1.85,0,0,1-1.55.66H892.2v23h37.93a1.93,1.93,0,0,1,2.16,2.2v4.82a1.82,1.82,0,0,1-2.06,2.06H885.18c-1.38,0-2.06-.65-2.06-2V82c0-1.43.68-2.15,2.06-2.15Z"/></svg>